# xmcd
#
# Track frame offsets:
#	150
#	17220
#	30600
#	43665
#	57600
#	67882
#	82292
#	97452
#	118157
#	131280
#	144605
#	157442
#
# Disc length: 2323
#
# Revision: 1
# Processed by: cddbd v1.5.1PL0 Copyright (c) Steve Scherf et al.
# Submitted via: ExactAudioCopy v0.90b4
# Normalized: r0:DSETVAR1,TDELIM( - )
#
DISCID=ba09110c
DTITLE=Various Artist - Cowboy Up, Vol. 2 - Official PRCA Rockin' Rodeo Album
DYEAR=1998
DGENRE=Country
TTITLE0=Joe Diffie - Honky Tonk Attitude
TTITLE1=Brooks and Dunn - Hard Workin' Man
TTITLE2=Terri Clark - Hold Your Horses
TTITLE3=Vince Gill - What the Cowgirls Do
TTITLE4=Rhett Akins - Every Cowboy's Dream
TTITLE5=John Michael Montgomery - Cowboy Love
TTITLE6=Matraca Berg - Back in the Saddle
TTITLE7=Chris LeDoux - Take Me to the Rodeo
TTITLE8=Deryl Dodd - 13 MWZ
TTITLE9=Toby Keith - She Ran Away With a Rodeo Clown
TTITLE10=Mark Chesnutt - Blame It on Texas
TTITLE11=Farmer's Daughters - Callin' All You Cowboys
EXTD=
EXTT0=
EXTT1=
EXTT2=
EXTT3=
EXTT4=
EXTT5=
EXTT6=
EXTT7=
EXTT8=
EXTT9=
EXTT10=
EXTT11=
PLAYORDER=
